<svg width="18" height="18" viewBox="0 0 18 18" fill="none" xmlns="http://www.w3.org/2000/svg">
<path d="M13.8341 16.8266L9 14.6779L4.16588 16.8266C4.08023 16.8647 3.98643 16.8807 3.89301 16.8733C3.79959 16.8659 3.70949 16.8353 3.63092 16.7842C3.55235 16.7331 3.48778 16.6632 3.44309 16.5808C3.39839 16.4985 3.37499 16.4062 3.375 16.3125V3.375C3.3756 2.77845 3.61284 2.2065 4.03467 1.78467C4.4565 1.36284 5.02845 1.1256 5.625 1.125H12.375C12.9716 1.1256 13.5435 1.36284 13.9653 1.78467C14.3872 2.2065 14.6244 2.77845 14.625 3.375V16.3125C14.625 16.4062 14.6016 16.4985 14.5569 16.5808C14.5122 16.6632 14.4477 16.7331 14.3691 16.7842C14.2905 16.8353 14.2004 16.8659 14.107 16.8733C14.0136 16.8807 13.9198 16.8647 13.8341 16.8266ZM9.22837 13.5484L13.5 15.4468V3.375C13.4996 3.07677 13.3809 2.79088 13.17 2.58C12.9591 2.36912 12.6732 2.25045 12.375 2.25H5.625C5.32677 2.25045 5.04088 2.36912 4.83 2.58C4.61912 2.79088 4.50045 3.07677 4.5 3.375V15.4462L8.77163 13.5484C8.84354 13.5165 8.92134 13.5 9 13.5C9.07866 13.5 9.15646 13.5165 9.22837 13.5484ZM12.375 3.9375C12.375 3.78832 12.3157 3.64524 12.2102 3.53975C12.1048 3.43426 11.9617 3.375 11.8125 3.375H6.1875C6.03832 3.375 5.89524 3.43426 5.78975 3.53975C5.68426 3.64524 5.625 3.78832 5.625 3.9375C5.625 4.08668 5.68426 4.22976 5.78975 4.33525C5.89524 4.44074 6.03832 4.5 6.1875 4.5H11.8125C11.9617 4.5 12.1048 4.44074 12.2102 4.33525C12.3157 4.22976 12.375 4.08668 12.375 3.9375Z" fill="#234777"/>
</svg>
