<svg width="18" height="18" viewBox="0 0 18 18" fill="none" xmlns="http://www.w3.org/2000/svg">
<path d="M15.3543 12.1898V10.2397C15.3543 9.7595 15.1638 9.29887 14.8245 8.959C14.4851 8.61913 14.0248 8.42779 13.5446 8.427H9.44958V5.81025C9.94049 5.69953 10.3733 5.41171 10.6653 5.00185C10.9573 4.59199 11.088 4.08887 11.0323 3.58873C10.9766 3.08859 10.7384 2.62654 10.3634 2.29097C9.98839 1.9554 9.50282 1.76987 8.99958 1.76987C8.49635 1.76987 8.01078 1.9554 7.63576 2.29097C7.26074 2.62654 7.0226 3.08859 6.9669 3.58873C6.9112 4.08887 7.04184 4.59199 7.33383 5.00185C7.62583 5.41171 8.05868 5.69953 8.54958 5.81025V8.42775H4.45833C3.97761 8.42815 3.51669 8.61924 3.1767 8.95909C2.83671 9.29893 2.64543 9.75978 2.64483 10.2405V12.1905C2.15373 12.3012 1.72068 12.5891 1.42855 12.9991C1.13641 13.4091 1.00569 13.9124 1.0614 14.4128C1.1171 14.9131 1.35532 15.3754 1.73048 15.7111C2.10564 16.0468 2.5914 16.2324 3.09483 16.2324C3.59827 16.2324 4.08403 16.0468 4.45919 15.7111C4.83435 15.3754 5.07256 14.9131 5.12827 14.4128C5.18397 13.9124 5.05325 13.4091 4.76112 12.9991C4.46898 12.5891 4.03594 12.3012 3.54483 12.1905V10.2405C3.54523 9.99835 3.6416 9.76622 3.81283 9.595C3.98406 9.42377 4.21618 9.3274 4.45833 9.327H8.54958V12.189C8.05868 12.2997 7.62583 12.5875 7.33383 12.9974C7.04184 13.4073 6.9112 13.9104 6.9669 14.4105C7.0226 14.9107 7.26074 15.3727 7.63576 15.7083C8.01078 16.0439 8.49635 16.2294 8.99958 16.2294C9.50282 16.2294 9.98839 16.0439 10.3634 15.7083C10.7384 15.3727 10.9766 14.9107 11.0323 14.4105C11.088 13.9104 10.9573 13.4073 10.6653 12.9974C10.3733 12.5875 9.94049 12.2997 9.44958 12.189V9.32775H13.5446C13.7863 9.32854 14.0179 9.42514 14.1886 9.59637C14.3593 9.7676 14.4551 9.99949 14.4551 10.2413V12.1912C13.9642 12.302 13.5313 12.5898 13.2393 12.9997C12.9473 13.4095 12.8167 13.9126 12.8724 14.4128C12.9281 14.9129 13.1662 15.375 13.5413 15.7105C13.9163 16.0461 14.4018 16.2316 14.9051 16.2316C15.4083 16.2316 15.8939 16.0461 16.2689 15.7105C16.6439 15.375 16.8821 14.9129 16.9378 14.4128C16.9935 13.9126 16.8628 13.4095 16.5708 12.9997C16.2788 12.5898 15.846 12.302 15.3551 12.1912L15.3543 12.1898ZM4.24083 14.181C4.24083 14.4075 4.17367 14.6289 4.04782 14.8173C3.92198 15.0056 3.74312 15.1524 3.53385 15.2391C3.32458 15.3258 3.09431 15.3484 2.87216 15.3042C2.65 15.2601 2.44594 15.151 2.28577 14.9908C2.1256 14.8306 2.01653 14.6266 1.97234 14.4044C1.92815 14.1823 1.95083 13.952 2.03751 13.7427C2.12419 13.5335 2.27098 13.3546 2.45932 13.2288C2.64765 13.1029 2.86907 13.0358 3.09558 13.0358C3.3992 13.0361 3.69027 13.1569 3.90496 13.3716C4.11965 13.5863 4.24044 13.8774 4.24083 14.181ZM10.1456 14.181C10.1456 14.4075 10.0784 14.6289 9.95263 14.8172C9.82682 15.0055 9.648 15.1523 9.43877 15.239C9.22955 15.3257 8.99932 15.3484 8.77718 15.3043C8.55505 15.2602 8.35098 15.1512 8.19078 14.9911C8.03059 14.831 7.92145 14.627 7.87718 14.4049C7.83291 14.1828 7.85548 13.9525 7.94205 13.7433C8.02861 13.534 8.17528 13.3551 8.36352 13.2291C8.55176 13.1032 8.77311 13.0359 8.99958 13.0358C9.30314 13.0363 9.59409 13.1572 9.80874 13.3718C10.0234 13.5865 10.145 13.8774 10.1456 14.181ZM8.99958 4.96425C8.77286 4.9644 8.55119 4.89729 8.36262 4.77143C8.17404 4.64556 8.02704 4.46659 7.94021 4.25715C7.85338 4.04772 7.83062 3.81723 7.87482 3.59486C7.91901 3.37249 8.02817 3.16822 8.18849 3.00791C8.3488 2.84759 8.55307 2.73843 8.77544 2.69423C8.99782 2.65004 9.2283 2.6728 9.43773 2.75963C9.64717 2.84646 9.82614 2.99346 9.95201 3.18203C10.0779 3.37061 10.145 3.59228 10.1448 3.819C10.1444 4.12262 10.0236 4.41369 9.80896 4.62838C9.59427 4.84307 9.3032 4.96385 8.99958 4.96425ZM14.9043 15.327C14.6776 15.3271 14.456 15.2601 14.2674 15.1342C14.0789 15.0084 13.9319 14.8295 13.845 14.6201C13.7582 14.4107 13.7354 14.1802 13.7795 13.9579C13.8236 13.7355 13.9327 13.5313 14.093 13.3709C14.2532 13.2106 14.4574 13.1014 14.6797 13.0571C14.9021 13.0128 15.1325 13.0354 15.342 13.1222C15.5514 13.2089 15.7304 13.3558 15.8564 13.5442C15.9824 13.7327 16.0496 13.9543 16.0496 14.181C16.0494 14.4848 15.9287 14.7762 15.714 14.9911C15.4993 15.2061 15.2081 15.3264 14.9043 15.327Z" fill="#234777"/>
</svg>
