<svg width="18" height="18" viewBox="0 0 18 18" fill="none" xmlns="http://www.w3.org/2000/svg">
<g clip-path="url(#clip0_3777_13543)">
<path fill-rule="evenodd" clip-rule="evenodd" d="M16.5745 4.82175C14.9799 6.41625 11.2374 10.158 10.3247 11.0677C10.1293 11.2629 9.89668 11.417 9.6407 11.5207C8.9087 11.8245 7.12295 12.525 6.59795 12.5602C6.44319 12.5707 6.288 12.5478 6.14278 12.4933C5.99757 12.4388 5.8657 12.3539 5.75602 12.2442C5.64634 12.1345 5.5614 12.0026 5.50688 11.8574C5.45237 11.7122 5.42954 11.557 5.43995 11.4023C5.4752 10.8772 6.1757 9.093 6.4742 8.364C6.57845 8.10525 6.7337 7.8705 6.93095 7.674L13.1784 1.42575C13.4812 1.12357 13.8915 0.95385 14.3192 0.95385C14.7469 0.95385 15.1572 1.12357 15.46 1.42575L16.5745 2.54025C16.8766 2.84299 17.0463 3.25326 17.0463 3.681C17.0463 4.10874 16.8766 4.51901 16.5745 4.82175ZM6.5672 11.433C7.0802 11.3685 8.57945 10.743 9.20945 10.4812C9.32919 10.4342 9.43795 10.363 9.52895 10.272L9.5297 10.2712C11.6141 8.19092 13.6971 6.10917 15.7787 4.026C15.8241 3.98072 15.86 3.92694 15.8846 3.86774C15.9091 3.80855 15.9218 3.74509 15.9218 3.681C15.9218 3.61691 15.9091 3.55345 15.8846 3.49425C15.86 3.43506 15.8241 3.38128 15.7787 3.336L14.6642 2.2215C14.6189 2.17615 14.5651 2.14016 14.5059 2.11561C14.4467 2.09106 14.3833 2.07843 14.3192 2.07843C14.2551 2.07843 14.1917 2.09106 14.1325 2.11561C14.0733 2.14016 14.0195 2.17615 13.9742 2.2215L7.72595 8.46975C7.63599 8.55923 7.56529 8.66617 7.5182 8.784L7.5167 8.787C7.25795 9.4185 6.6317 10.9193 6.5672 11.433Z" fill="#234777"/>
<path fill-rule="evenodd" clip-rule="evenodd" d="M15.0882 5.51175C15.1404 5.564 15.1818 5.62603 15.2101 5.6943C15.2384 5.76257 15.253 5.83573 15.253 5.90963C15.253 5.98352 15.2384 6.05669 15.2101 6.12495C15.1818 6.19322 15.1404 6.25525 15.0882 6.3075C15.0359 6.35975 14.9739 6.4012 14.9056 6.42948C14.8373 6.45775 14.7642 6.47231 14.6903 6.47231C14.6164 6.47231 14.5432 6.45775 14.4749 6.42948C14.4067 6.4012 14.3446 6.35975 14.2924 6.3075L11.6922 3.70725C11.5866 3.60173 11.5273 3.45861 11.5273 3.30938C11.5273 3.16014 11.5866 3.01702 11.6922 2.9115C11.7977 2.80598 11.9408 2.7467 12.09 2.7467C12.2393 2.7467 12.3824 2.80598 12.4879 2.9115L15.0882 5.51175ZM10.4974 10.1025C10.5496 10.1547 10.591 10.2167 10.6193 10.2849C10.6475 10.3531 10.6621 10.4262 10.6621 10.5C10.6621 10.5738 10.6475 10.6469 10.6193 10.7151C10.591 10.7833 10.5496 10.8453 10.4974 10.8975C10.4452 10.9497 10.3832 10.9911 10.315 11.0194C10.2468 11.0476 10.1737 11.0622 10.0999 11.0622C10.0261 11.0622 9.95298 11.0476 9.88477 11.0194C9.81657 10.9911 9.7546 10.9497 9.7024 10.8975L7.10215 8.29725C7.04995 8.24505 7.00854 8.18308 6.98029 8.11488C6.95204 8.04667 6.9375 7.97357 6.9375 7.89975C6.9375 7.82593 6.95204 7.75283 6.98029 7.68463C7.00854 7.61642 7.04995 7.55445 7.10215 7.50225C7.15435 7.45005 7.21632 7.40864 7.28452 7.38039C7.35273 7.35214 7.42583 7.3376 7.49965 7.3376C7.57347 7.3376 7.64657 7.35214 7.71478 7.38039C7.78298 7.40864 7.84495 7.45005 7.89715 7.50225L10.4974 10.1025Z" fill="#234777"/>
<path fill-rule="evenodd" clip-rule="evenodd" d="M6.375 2.4375C6.52418 2.4375 6.66726 2.49676 6.77275 2.60225C6.87824 2.70774 6.9375 2.85082 6.9375 3C6.9375 3.14918 6.87824 3.29226 6.77275 3.39775C6.66726 3.50324 6.52418 3.5625 6.375 3.5625H3.75C3.30245 3.5625 2.87322 3.74029 2.55676 4.05676C2.24029 4.37323 2.0625 4.80245 2.0625 5.25V14.25C2.0625 14.6976 2.24029 15.1268 2.55676 15.4432C2.87322 15.7597 3.30245 15.9375 3.75 15.9375H13.5C13.9476 15.9375 14.3768 15.7597 14.6932 15.4432C15.0097 15.1268 15.1875 14.6976 15.1875 14.25V11.625C15.1875 11.4758 15.2468 11.3327 15.3523 11.2273C15.4577 11.1218 15.6008 11.0625 15.75 11.0625C15.8992 11.0625 16.0423 11.1218 16.1477 11.2273C16.2532 11.3327 16.3125 11.4758 16.3125 11.625V14.25C16.3121 14.9958 16.0157 15.7109 15.4883 16.2383C14.9609 16.7657 14.2458 17.0621 13.5 17.0625H3.75C3.0042 17.0621 2.28906 16.7657 1.7617 16.2383C1.23434 15.7109 0.937897 14.9958 0.9375 14.25V5.25C0.9375 4.50408 1.23382 3.78871 1.76126 3.26126C2.28871 2.73382 3.00408 2.4375 3.75 2.4375H6.375Z" fill="#234777"/>
</g>
<defs>
<clipPath id="clip0_3777_13543">
<rect width="18" height="18" fill="white"/>
</clipPath>
</defs>
</svg>
