<svg width="18" height="18" viewBox="0 0 18 18" fill="none" xmlns="http://www.w3.org/2000/svg">
<path d="M12.2064 6.70875C12.2589 6.735 12.3152 6.75 12.3752 6.75C12.4352 6.75 12.4914 6.735 12.5439 6.70875C15.0002 5.47875 15.0002 3.7275 15.0002 1.875C15.0002 1.66875 14.8314 1.5 14.6252 1.5C13.9314 1.5 12.9189 1.14 12.6414 0.858751C12.6067 0.823987 12.5655 0.796407 12.5201 0.777589C12.4748 0.758771 12.4261 0.749084 12.377 0.749084C12.3279 0.749084 12.2793 0.758771 12.2339 0.777589C12.1886 0.796407 12.1473 0.823987 12.1127 0.858751C11.8314 1.14 10.8189 1.5 10.1289 1.5C9.92266 1.5 9.75391 1.66875 9.75391 1.875C9.75391 3.73125 9.75391 5.4825 12.2102 6.70875H12.2064ZM12.3752 1.5975C12.8589 1.90875 13.6277 2.14875 14.2502 2.22375C14.2427 3.8175 14.1264 5.01 12.3752 5.95125C10.6239 5.01 10.5077 3.82125 10.5002 2.22375C11.1227 2.14875 11.8914 1.90875 12.3752 1.5975Z" fill="#234777"/>
<path d="M12.1095 4.76625C12.1808 4.8375 12.2745 4.875 12.3758 4.875C12.3945 4.875 12.417 4.875 12.4358 4.87125C12.5558 4.8525 12.657 4.7775 12.7095 4.66875L13.4595 3.16875C13.4818 3.12474 13.495 3.07675 13.4986 3.02756C13.5021 2.97838 13.4959 2.92898 13.4802 2.88223C13.4645 2.83548 13.4396 2.79232 13.4071 2.75524C13.3746 2.71817 13.3351 2.68792 13.2908 2.66625C13.2467 2.64401 13.1988 2.63073 13.1496 2.62718C13.1004 2.62363 13.051 2.62989 13.0042 2.64559C12.9575 2.66129 12.9143 2.68611 12.8772 2.71863C12.8402 2.75115 12.8099 2.7907 12.7883 2.835L12.2708 3.87L11.8883 3.4875C11.8535 3.45279 11.8123 3.42525 11.767 3.40646C11.7216 3.38767 11.673 3.378 11.6239 3.378C11.5748 3.378 11.5262 3.38767 11.4808 3.40646C11.4354 3.42525 11.3942 3.45279 11.3595 3.4875C11.3248 3.52222 11.2972 3.56344 11.2785 3.6088C11.2597 3.65416 11.25 3.70278 11.25 3.75188C11.25 3.80098 11.2597 3.8496 11.2785 3.89496C11.2972 3.94032 11.3248 3.98154 11.3595 4.01625L12.1095 4.76625Z" fill="#234777"/>
<path d="M13.875 6.85135C13.6687 6.85135 13.5 7.0201 13.5 7.22635V16.5001H3.75V4.5001H6C6.4125 4.5001 6.75 4.1626 6.75 3.7501V1.5001H8.8275C9.03375 1.5001 9.2025 1.33135 9.2025 1.1251C9.2025 0.918849 9.03375 0.750099 8.8275 0.750099H6.52875C6.33375 0.750099 6.13875 0.828849 6 0.967599L3.2175 3.7501C3.07875 3.88885 3 4.0801 3 4.27885V16.5001C3 16.9126 3.3375 17.2501 3.75 17.2501H13.5C13.9125 17.2501 14.25 16.9126 14.25 16.5001V7.22635C14.25 7.0201 14.0813 6.85135 13.875 6.85135ZM4.27875 3.7501L6 2.02885V3.7501H4.27875Z" fill="#234777"/>
<path d="M11.625 11.25H5.625C5.41875 11.25 5.25 11.4187 5.25 11.625C5.25 11.8313 5.41875 12 5.625 12H11.625C11.8313 12 12 11.8313 12 11.625C12 11.4187 11.8313 11.25 11.625 11.25ZM11.625 9.75H5.625C5.41875 9.75 5.25 9.91875 5.25 10.125C5.25 10.3313 5.41875 10.5 5.625 10.5H11.625C11.8313 10.5 12 10.3313 12 10.125C12 9.91875 11.8313 9.75 11.625 9.75ZM11.625 13.5H10.875C10.7325 13.5 10.605 13.5787 10.5413 13.7062L10.5 13.785L10.0837 12.9562C10.0387 12.868 9.96088 12.8009 9.86694 12.7693C9.773 12.7378 9.67043 12.7443 9.58125 12.7875C8.63625 13.26 8.625 14.5688 8.625 14.6213C8.625 14.8275 8.79375 14.9963 9 14.9963C9.20625 14.9963 9.375 14.8275 9.375 14.6213C9.375 14.6138 9.38625 14.0813 9.63 13.7175L10.1625 14.7863C10.2263 14.9137 10.3575 14.9925 10.4963 14.9925C10.635 14.9925 10.7662 14.9137 10.83 14.7863L11.1 14.2425H11.6175C11.8238 14.2425 11.9925 14.0737 11.9925 13.8675C11.9925 13.6613 11.8238 13.4925 11.6175 13.4925L11.625 13.5ZM7.125 6.375C7.125 6.7125 7.24125 7.02 7.42875 7.27125C6.91875 7.51125 6.5625 8.025 6.5625 8.625C6.5625 8.83125 6.73125 9 6.9375 9C7.14375 9 7.3125 8.83125 7.3125 8.625C7.3125 8.2125 7.65 7.875 8.0625 7.875H9.1875C9.6 7.875 9.9375 8.2125 9.9375 8.625C9.9375 8.83125 10.1062 9 10.3125 9C10.5188 9 10.6875 8.83125 10.6875 8.625C10.6875 8.025 10.3313 7.51125 9.82125 7.27125C10.0087 7.02 10.125 6.7125 10.125 6.375C10.125 5.54625 9.45375 4.875 8.625 4.875C7.79625 4.875 7.125 5.54625 7.125 6.375ZM9.375 6.375C9.375 6.7875 9.0375 7.125 8.625 7.125C8.2125 7.125 7.875 6.7875 7.875 6.375C7.875 5.9625 8.2125 5.625 8.625 5.625C9.0375 5.625 9.375 5.9625 9.375 6.375ZM8.20125 13.125C8.20125 12.9187 8.0325 12.75 7.82625 12.75H5.625C5.41875 12.75 5.25 12.9187 5.25 13.125C5.25 13.3313 5.41875 13.5 5.625 13.5H7.82625C8.0325 13.5 8.20125 13.3313 8.20125 13.125ZM7.5 14.25H5.625C5.41875 14.25 5.25 14.4187 5.25 14.625C5.25 14.8313 5.41875 15 5.625 15H7.5C7.70625 15 7.875 14.8313 7.875 14.625C7.875 14.4187 7.70625 14.25 7.5 14.25Z" fill="#234777"/>
</svg>
