<svg width="22" height="22" viewBox="0 0 22 22" fill="none" xmlns="http://www.w3.org/2000/svg">
<path d="M6.50016 15.4166C6.27016 15.4166 6.0835 15.6033 6.0835 15.8333C6.0835 16.0633 6.27016 16.25 6.50016 16.25C6.73016 16.25 6.91683 16.0633 6.91683 15.8333C6.91683 15.6033 6.73016 15.4166 6.50016 15.4166Z" fill="#234777"/>
<path d="M18.7559 7.91663L21.2113 5.46125C21.2621 5.41047 21.2989 5.34743 21.3181 5.27824C21.3373 5.20905 21.3384 5.13607 21.3211 5.06637C21.3038 4.99667 21.2688 4.93261 21.2195 4.88042C21.1702 4.82823 21.1082 4.78968 21.0396 4.7685L15.0604 2.92308C14.5214 1.19054 12.9194 0 11.0833 0C9.37647 0 7.84998 1.04021 7.21819 2.60938L0.292632 4.76888C0.224171 4.79022 0.162378 4.82888 0.113232 4.8811C0.0640858 4.93333 0.0292506 4.99735 0.0120964 5.06698C-0.00505777 5.13661 -0.00395011 5.20949 0.0153122 5.27857C0.0345745 5.34765 0.0713394 5.41058 0.12205 5.46129L2.642 7.98125L1.05267 10.6302C1.02058 10.6837 1.00091 10.7437 0.995113 10.8059C0.989319 10.868 0.99755 10.9306 1.0192 10.9891C1.04085 11.0477 1.07536 11.1006 1.12019 11.144C1.16502 11.1874 1.21902 11.2201 1.27821 11.2399L3.58333 12.0082V18.4166C3.58333 18.5014 3.60922 18.5842 3.65753 18.654C3.70585 18.7237 3.77429 18.777 3.8537 18.8068C5.26316 19.3353 10.5 21.2993 10.5281 21.3093C10.6142 21.3398 10.7079 21.3411 10.7947 21.313C10.7959 21.3126 10.7972 21.3123 10.7984 21.3119L18.2984 18.8119C18.3813 18.7843 18.4535 18.7312 18.5046 18.6603C18.5557 18.5893 18.5833 18.5041 18.5833 18.4166V11.8366L21.0415 11.0641C21.1099 11.0427 21.1715 11.0039 21.2205 10.9517C21.2695 10.8994 21.3042 10.8354 21.3213 10.7659C21.3384 10.6963 21.3372 10.6235 21.3179 10.5545C21.2987 10.4855 21.2619 10.4227 21.2113 10.372L18.7559 7.91663ZM15.25 4.16667C15.25 4.06079 15.2455 3.95517 15.2375 3.84988L20.1331 5.36092L18.0541 7.43992L14.6571 6.30771C15.0417 5.66475 15.25 4.92283 15.25 4.16667ZM7.93027 3.08217C8.39281 1.73708 9.65993 0.833333 11.0833 0.833333C12.6167 0.833333 13.9466 1.8705 14.3174 3.3555C14.3834 3.62083 14.4167 3.89324 14.4166 4.16667C14.4166 4.94058 14.1598 5.66596 13.6738 6.26467C13.0373 7.04975 12.093 7.5 11.0833 7.5C9.99181 7.5 8.96802 6.96425 8.34444 6.0665C7.95556 5.50792 7.74998 4.85092 7.74998 4.16667C7.74998 3.79454 7.81061 3.42967 7.93027 3.08217ZM1.19855 5.35929L6.96102 3.56246C6.93171 3.76252 6.91688 3.96443 6.91665 4.16663C6.91665 4.8375 7.07557 5.48729 7.37848 6.07358L3.2792 7.43992L1.19855 5.35929ZM2.0345 10.6135L3.352 8.41763L10.0421 10.6477L8.72464 12.8436L2.0345 10.6135ZM10.25 20.3154L4.41666 18.1279V12.286C9.00623 13.8077 8.7821 13.7613 8.90989 13.7613C9.05314 13.7613 9.19031 13.6872 9.26727 13.559L10.25 11.921V20.3154ZM10.6666 9.97746L4.48433 7.91671L7.85073 6.79463C8.63864 7.76325 9.82477 8.33333 11.0833 8.33333C12.2475 8.33333 13.3418 7.85421 14.1288 7.01004L16.8489 7.91667L10.6666 9.97746ZM17.7499 18.1163L11.0833 20.3385V11.6044L12.5604 13.4506C12.6129 13.5162 12.684 13.5644 12.7643 13.5889C12.8447 13.6134 12.9306 13.613 13.0107 13.5878L17.7499 12.0985V18.1163ZM13.033 12.7074L11.3653 10.623L18.0541 8.39338L20.1359 10.4752L13.033 12.7074Z" fill="#234777"/>
<path d="M9.14664 16.3414L8.21998 15.9939C8.00452 15.9132 7.76435 16.0223 7.68352 16.2378C7.60273 16.4533 7.7119 16.6934 7.92735 16.7742L8.85402 17.1217C9.06993 17.2027 9.30981 17.093 9.39047 16.8779C9.47126 16.6624 9.3621 16.4222 9.14664 16.3414ZM9.1466 18.1214L6.64661 17.1839C6.43115 17.1032 6.19098 17.2123 6.11015 17.4278C6.02932 17.6432 6.13853 17.8834 6.35398 17.9642L8.85397 18.9017C8.90073 18.9193 8.95027 18.9284 9.00022 18.9284C9.16893 18.9284 9.32768 18.8252 9.39043 18.6579C9.47126 18.4424 9.3621 18.2022 9.1466 18.1214ZM13.4616 2.62195C13.2989 2.4592 13.0351 2.45924 12.8723 2.62195L10.667 4.82736L10.1283 4.28866C9.96555 4.12595 9.70172 4.12595 9.53897 4.28866C9.37622 4.45136 9.37626 4.7152 9.53897 4.87795L10.3723 5.71124C10.5351 5.87395 10.7989 5.87395 10.9616 5.71124L13.4616 3.21124C13.6243 3.04853 13.6243 2.7847 13.4616 2.62195Z" fill="#234777"/>
</svg>
