<svg width="20" height="22" viewBox="0 0 20 22" fill="none" xmlns="http://www.w3.org/2000/svg">
<path d="M19.6968 3.56943C19.6015 2.9707 19.0772 2.52389 18.4725 2.52389H18.4606C14.7015 2.56262 11.0764 3.90305 8.19592 6.30391C8.10656 5.24944 7.80571 4.22177 7.30826 3.28049C6.62911 1.99666 5.6074 0.924315 4.35931 0.179632C3.85591 -0.12122 3.22739 -0.0378159 2.8342 0.382185C0.963557 2.37496 -0.0432552 4.97837 0.00142577 7.71285C0.043128 10.346 1.0559 12.8244 2.86101 14.7278C2.69122 15.3771 2.56314 16.0384 2.47675 16.7116C2.44101 16.9886 2.63463 17.2418 2.91463 17.2805C2.93548 17.2835 2.95931 17.2835 2.98016 17.2835C3.23037 17.2835 3.44782 17.0988 3.48059 16.8427C3.57293 16.1427 3.70995 15.4576 3.89463 14.7933C3.91548 14.7486 3.9274 14.7039 3.93335 14.6563C5.75932 8.25498 11.6632 3.60815 18.4785 3.53666H18.4815C18.5887 3.53666 18.69 3.62305 18.7079 3.7273C19.0832 6.0954 19.0951 8.49625 18.7436 10.8673C18.7377 10.8852 18.7317 10.9031 18.7287 10.9209C18.0287 13.9265 16.0747 16.4942 13.361 17.9627C10.9691 19.2614 8.184 19.601 5.57166 18.9427C6.45336 18.3618 7.29932 17.7244 8.10656 17.0303C10.2364 15.1984 12.0266 13.0329 13.4266 10.5992C13.5666 10.358 13.4832 10.0482 13.2389 9.90817C12.9976 9.76817 12.6878 9.85158 12.5478 10.0958C10.5044 13.6256 7.5823 16.5746 4.1091 18.6537C4.0942 18.6597 4.08229 18.6686 4.0674 18.6776C2.95335 19.3418 1.78569 19.9137 0.570364 20.3903C0.311214 20.4916 0.18015 20.7865 0.284405 21.0457C0.361852 21.2452 0.552491 21.3674 0.755045 21.3674C0.817599 21.3674 0.880152 21.3554 0.939727 21.3316C2.14313 20.861 3.29888 20.301 4.40697 19.6546C5.64017 20.0716 6.92102 20.2801 8.1989 20.2801C10.147 20.2801 12.0861 19.8005 13.8317 18.8503C16.7687 17.2597 18.8955 14.4895 19.6789 11.2456C19.6968 11.2039 19.7117 11.1592 19.7177 11.1116C20.1019 8.60944 20.093 6.07157 19.6968 3.56943ZM5.08612 9.75328C5.08017 9.21115 5.05634 8.70774 5.01463 8.22519C4.92229 7.19455 4.74655 6.11029 4.47846 4.9039C4.41889 4.62986 4.14782 4.46007 3.87378 4.51965C3.59974 4.57922 3.42995 4.85029 3.48952 5.12433C3.74867 6.28603 3.91846 7.32859 4.00484 8.31455C4.08825 9.25881 4.09718 10.2984 4.02867 11.5763C3.70697 12.2256 3.42697 12.8958 3.19463 13.5869C0.144405 9.9469 0.248661 4.60603 3.56697 1.07325C3.6325 1.00176 3.74569 0.992826 3.83803 1.04644C6.00953 2.33921 7.28741 4.6805 7.20698 7.19455C6.41423 7.97254 5.70354 8.82996 5.08612 9.75328Z" fill="#234777"/>
</svg>
