<svg width="18" height="18" viewBox="0 0 18 18" fill="none" xmlns="http://www.w3.org/2000/svg">
<path d="M4.966 8.01562H1.2215C0.547945 8.01562 0 7.46768 0 6.79412V3.04963C0 2.37607 0.547945 1.82812 1.2215 1.82812H4.966C5.63955 1.82812 6.1875 2.37607 6.1875 3.04963V6.79412C6.1875 7.46768 5.63955 8.01562 4.966 8.01562ZM1.2215 2.95312C1.19592 2.95315 1.17139 2.96333 1.1533 2.98142C1.1352 2.99951 1.12503 3.02404 1.125 3.04963V6.79412C1.12503 6.81971 1.1352 6.84424 1.1533 6.86233C1.17139 6.88042 1.19592 6.8906 1.2215 6.89062H4.966C4.99158 6.8906 5.01611 6.88042 5.0342 6.86233C5.0523 6.84424 5.06247 6.81971 5.0625 6.79412V3.04963C5.06247 3.02404 5.0523 2.99951 5.0342 2.98142C5.01611 2.96333 4.99158 2.95315 4.966 2.95312H1.2215ZM4.966 16.1719H1.2215C0.547945 16.1719 0 15.6239 0 14.9504V11.2059C0 10.5323 0.547945 9.98438 1.2215 9.98438H4.966C5.63955 9.98438 6.1875 10.5323 6.1875 11.2059V14.9504C6.1875 15.6239 5.63955 16.1719 4.966 16.1719ZM1.2215 11.1094C1.19592 11.1094 1.17139 11.1196 1.1533 11.1377C1.1352 11.1558 1.12503 11.1803 1.125 11.2059V14.9504C1.12503 14.976 1.1352 15.0005 1.1533 15.0186C1.17139 15.0367 1.19592 15.0468 1.2215 15.0469H4.966C4.99158 15.0468 5.01611 15.0367 5.0342 15.0186C5.0523 15.0005 5.06247 14.976 5.0625 14.9504V11.2059C5.06247 11.1803 5.0523 11.1558 5.0342 11.1377C5.01611 11.1196 4.99158 11.1094 4.966 11.1094H1.2215ZM17.4375 4.64062H8.4375C8.12686 4.64062 7.875 4.38877 7.875 4.07812C7.875 3.76748 8.12686 3.51562 8.4375 3.51562H17.4375C17.7481 3.51562 18 3.76748 18 4.07812C18 4.38877 17.7481 4.64062 17.4375 4.64062ZM14.3438 6.75H8.4375C8.12686 6.75 7.875 6.49814 7.875 6.1875C7.875 5.87686 8.12686 5.625 8.4375 5.625H14.3438C14.6544 5.625 14.9062 5.87686 14.9062 6.1875C14.9062 6.49814 14.6544 6.75 14.3438 6.75ZM17.4375 12.6562H8.4375C8.12686 12.6562 7.875 12.4044 7.875 12.0938C7.875 11.7831 8.12686 11.5312 8.4375 11.5312H17.4375C17.7481 11.5312 18 11.7831 18 12.0938C18 12.4044 17.7481 12.6562 17.4375 12.6562ZM14.3438 14.9062H8.4375C8.12686 14.9062 7.875 14.6544 7.875 14.3438C7.875 14.0331 8.12686 13.7812 8.4375 13.7812H14.3438C14.6544 13.7812 14.9062 14.0331 14.9062 14.3438C14.9062 14.6544 14.6544 14.9062 14.3438 14.9062Z" fill="#234777"/>
</svg>
