<svg width="18" height="18" viewBox="0 0 18 18" fill="none" xmlns="http://www.w3.org/2000/svg">
<path d="M15.3281 2.10938H12.6914V1.58203C12.6914 0.709699 11.9817 0 11.1094 0H6.89062C6.01829 0 5.30859 0.709699 5.30859 1.58203V2.10938H2.67188C1.79954 2.10938 1.08984 2.81907 1.08984 3.69141C1.08984 4.392 1.54775 4.9873 2.17986 5.19472L3.12047 16.5493C3.18822 17.3628 3.88072 18 4.69702 18H13.303C14.1193 18 14.8118 17.3628 14.8796 16.5491L15.8201 5.19469C16.4522 4.9873 16.9102 4.392 16.9102 3.69141C16.9102 2.81907 16.2005 2.10938 15.3281 2.10938ZM6.36328 1.58203C6.36328 1.29125 6.59985 1.05469 6.89062 1.05469H11.1094C11.4002 1.05469 11.6367 1.29125 11.6367 1.58203V2.10938H6.36328V1.58203ZM13.8285 16.4618C13.8059 16.7329 13.5751 16.9453 13.303 16.9453H4.69702C4.42494 16.9453 4.19411 16.7329 4.17157 16.462L3.24471 5.27344H14.7553L13.8285 16.4618ZM15.3281 4.21875H2.67188C2.3811 4.21875 2.14453 3.98218 2.14453 3.69141C2.14453 3.40063 2.3811 3.16406 2.67188 3.16406H15.3281C15.6189 3.16406 15.8555 3.40063 15.8555 3.69141C15.8555 3.98218 15.6189 4.21875 15.3281 4.21875Z" fill="#FF0000"/>
<path d="M6.88965 15.3306L6.3623 6.8228C6.34427 6.53209 6.09266 6.311 5.80335 6.3291C5.51265 6.34714 5.29162 6.59738 5.30962 6.88805L5.83696 15.3959C5.8543 15.6755 6.08647 15.8906 6.3628 15.8906C6.6682 15.8906 6.90838 15.6334 6.88965 15.3306ZM9.00004 6.32812C8.70881 6.32812 8.4727 6.56423 8.4727 6.85546V15.3633C8.4727 15.6545 8.70881 15.8906 9.00004 15.8906C9.29128 15.8906 9.52739 15.6545 9.52739 15.3633V6.85546C9.52739 6.56423 9.29128 6.32812 9.00004 6.32812ZM12.1967 6.32914C11.9067 6.3111 11.6557 6.53213 11.6377 6.82284L11.1104 15.3306C11.0924 15.6213 11.3135 15.8716 11.6041 15.8896C11.895 15.9076 12.1451 15.6865 12.1631 15.3959L12.6904 6.88809C12.7084 6.59738 12.4874 6.34714 12.1967 6.32914Z" fill="#FF0000"/>
</svg>
