<svg width="18" height="18" viewBox="0 0 18 18" fill="none" xmlns="http://www.w3.org/2000/svg">
<path d="M2.98423 13.0191C3.11326 12.6967 3.23033 12.3697 3.37587 12.0547C3.44021 11.9141 3.46728 11.796 3.38361 11.6634C3.37929 11.6568 3.37597 11.6496 3.37376 11.642C3.23595 11.1347 2.97615 10.8032 2.41576 10.6421C1.80931 10.4664 1.52103 9.94359 1.48939 9.30621C1.4799 9.11883 1.48622 8.93074 1.48939 8.74371C1.49536 8.06098 1.86556 7.49777 2.51876 7.30758C2.93536 7.18629 3.1565 6.96375 3.30767 6.56191C3.42615 6.24551 3.42544 6.01066 3.26794 5.7157C2.88298 4.995 2.99513 4.37977 3.57732 3.80039C3.75978 3.61934 3.93908 3.42422 4.15247 3.28605C4.69247 2.93695 5.249 2.98547 5.79392 3.29379C5.99537 3.4077 6.1715 3.4548 6.42181 3.3641C6.88904 3.19465 7.20298 2.96719 7.34115 2.44125C7.49619 1.85133 8.08892 1.49766 8.70943 1.48711C8.88134 1.4843 9.05361 1.48711 9.22552 1.48711C9.94939 1.49062 10.507 1.85871 10.7081 2.55269C10.8227 2.94891 11.0188 3.19254 11.4161 3.27797C11.4314 3.28144 11.446 3.28776 11.459 3.2966C11.7402 3.4868 11.993 3.42141 12.2778 3.26848C12.9974 2.88176 13.6183 2.99039 14.1956 3.56906C14.3773 3.75117 14.5721 3.93047 14.7102 4.14387C15.0418 4.65469 15.0421 5.19855 14.7356 5.71887C14.5636 6.01031 14.5844 6.25113 14.6965 6.56473C14.8431 6.97394 15.0787 7.18348 15.4883 7.30828C16.1432 7.50797 16.5078 8.06273 16.5141 8.74969C16.5141 8.9216 16.5159 9.09387 16.5141 9.26578C16.506 9.93375 16.1415 10.4994 15.4967 10.6864C15.0681 10.8105 14.8463 11.0429 14.692 11.4483C14.5756 11.7541 14.5781 11.9858 14.7303 12.2727C15.1198 13.0068 15.0115 13.6181 14.4177 14.2084C14.2356 14.3898 14.0553 14.5842 13.8405 14.7199C13.2601 15.087 12.6761 14.9924 12.1147 14.6563C11.9449 14.5543 11.7877 14.529 11.6172 14.637C11.6104 14.6408 11.6031 14.6437 11.5954 14.6454C11.105 14.7744 10.809 15.0423 10.6539 15.57C10.4729 16.1852 9.9508 16.4812 9.30357 16.5122C9.11619 16.521 8.9281 16.5154 8.74107 16.5122C8.06255 16.5052 7.49724 16.1329 7.30951 15.4761C7.18857 15.0543 6.95794 14.8352 6.55787 14.6929C6.26853 14.5898 6.04388 14.56 5.7549 14.7157C4.98322 15.1284 4.39365 15.0082 3.76083 14.3873C3.42685 14.0597 3.11185 13.7275 3.06263 13.2307C3.05665 13.1685 3.04962 13.1066 3.04329 13.0444L2.98423 13.0191ZM4.92908 4.02855C4.8215 4.0848 4.68931 4.13402 4.58419 4.21488C4.4499 4.32035 4.3381 4.45324 4.21611 4.57629C4.0354 4.76121 4.01115 4.9732 4.12048 5.20137C4.22173 5.4123 4.35744 5.61199 4.42599 5.83418C4.47767 6.00012 4.4963 6.20894 4.44286 6.36891C4.29512 6.80535 4.11896 7.23165 3.91552 7.64508C3.84134 7.79555 3.67646 7.92633 3.52177 8.00648C3.31083 8.11617 3.06474 8.1668 2.83798 8.24695C2.59189 8.33344 2.47622 8.52152 2.48818 8.77148C2.5047 9.11461 2.36267 9.51328 2.78349 9.73301C2.84036 9.75881 2.89912 9.7802 2.95927 9.79699C3.14419 9.85957 3.32771 9.92672 3.51474 9.98227C3.72568 10.0448 3.85822 10.1784 3.93661 10.3837C4.06669 10.7184 4.19079 11.058 4.35357 11.3769C4.53919 11.7404 4.51107 12.0565 4.31841 12.4144C3.91904 13.1484 3.94646 13.205 4.56943 13.7812C4.75927 13.957 4.96564 13.9901 5.19451 13.8825C5.39947 13.7862 5.60372 13.6874 5.80271 13.5798C5.89067 13.5286 5.98967 13.4994 6.09133 13.4946C6.19298 13.4898 6.29429 13.5097 6.38665 13.5524C6.80326 13.7299 7.2304 13.8825 7.63646 14.0829C7.78763 14.1578 7.92122 14.3191 8.00138 14.4731C8.11177 14.6841 8.16275 14.928 8.2415 15.1569C8.32271 15.3928 8.49779 15.5208 8.73896 15.5085C9.08138 15.4927 9.47724 15.6428 9.7156 15.2409C9.74793 15.1786 9.77384 15.1131 9.79294 15.0455C9.85833 14.8532 9.89595 14.6457 9.99333 14.4721C10.0791 14.3195 10.2081 14.1599 10.359 14.0818C10.6901 13.9096 11.0582 13.8083 11.3904 13.6378C11.749 13.4536 12.0567 13.4888 12.4054 13.6772C13.1458 14.0769 13.208 14.0516 13.774 13.4311L13.7902 13.4139C13.9583 13.2325 13.986 13.0271 13.882 12.8078C13.7818 12.5968 13.6763 12.3859 13.568 12.1788C13.5206 12.0933 13.4941 11.9977 13.4906 11.9C13.4872 11.8022 13.5068 11.705 13.548 11.6163C13.7259 11.1998 13.8992 10.7815 14.0679 10.3612C14.1016 10.2691 14.1569 10.1864 14.2293 10.1202C14.3016 10.0539 14.3888 10.006 14.4835 9.98051C14.7074 9.9123 14.9279 9.83215 15.1497 9.75691C15.3852 9.67676 15.5178 9.50414 15.5083 9.26473C15.4946 8.92195 15.6436 8.52644 15.246 8.28562C15.1839 8.25271 15.1185 8.22643 15.0509 8.20723C14.8751 8.14641 14.6993 8.07996 14.5172 8.03144C14.2873 7.96816 14.1414 7.83211 14.056 7.60957C13.9284 7.27418 13.8029 6.93492 13.6401 6.61605C13.458 6.25992 13.4847 5.9523 13.6752 5.60074C14.0795 4.85367 14.0542 4.79988 13.4362 4.22965C13.2252 4.03559 13.0358 4.00641 12.771 4.13473C12.5671 4.23352 12.3748 4.36676 12.1611 4.43109C11.9944 4.48102 11.7863 4.49789 11.626 4.4434C11.1901 4.29429 10.7638 4.11817 10.3498 3.91605C10.2043 3.84574 10.0749 3.6893 9.99826 3.54094C9.88927 3.32789 9.83548 3.08637 9.75884 2.8568C9.68044 2.62055 9.51064 2.48379 9.26911 2.49363C8.92669 2.50769 8.53083 2.35652 8.28685 2.75027C8.25303 2.81187 8.22625 2.87709 8.20705 2.94469C8.13919 3.14437 8.09736 3.35672 8.00103 3.54234C7.92685 3.68508 7.80943 3.84117 7.67091 3.90762C7.24191 4.11455 6.80124 4.29637 6.35115 4.45219C6.19892 4.50457 5.99747 4.48031 5.83786 4.42969C5.62447 4.36219 5.43181 4.23176 5.22685 4.13508C5.12949 4.09446 5.0301 4.05891 4.92908 4.02855Z" fill="#234777"/>
<path d="M9.02331 5.49C10.926 5.49703 12.5055 7.07906 12.5087 8.98102C12.5122 10.9266 10.9235 12.5156 8.98921 12.5051C7.05492 12.4945 5.48378 10.9121 5.49222 8.98137C5.50066 7.05059 7.08902 5.48262 9.02331 5.49ZM8.98359 11.4961C9.64302 11.4967 10.276 11.2367 10.7446 10.7728C11.2131 10.3088 11.4794 9.67839 11.4852 9.01899C11.491 8.35958 11.236 7.72459 10.7758 7.25237C10.3155 6.78015 9.68722 6.50897 9.02788 6.49793C7.62163 6.48984 6.50331 7.59832 6.50331 9C6.50225 9.32676 6.56556 9.65053 6.68964 9.95282C6.81371 10.2551 6.99612 10.53 7.22644 10.7618C7.45676 10.9936 7.73048 11.1777 8.03197 11.3037C8.33347 11.4297 8.65683 11.4951 8.98359 11.4961Z" fill="#234777"/>
</svg>
