<svg width="18" height="18" viewBox="0 0 18 18" fill="none" xmlns="http://www.w3.org/2000/svg">
<path d="M16.5 8.1375V6.3C16.5003 6.09702 16.4605 5.89599 16.383 5.7084C16.3055 5.52082 16.1917 5.35039 16.0481 5.20686C15.9046 5.06333 15.7342 4.94954 15.5466 4.872C15.359 4.79446 15.158 4.7547 14.955 4.755H13.95L5.7375 1.335C5.59786 1.27602 5.44784 1.24556 5.29625 1.24541C5.14467 1.24526 4.99459 1.27542 4.85483 1.33411C4.71507 1.39281 4.58846 1.47886 4.48245 1.58721C4.37643 1.69555 4.29315 1.824 4.2375 1.965L3.12 4.755H2.295C2.09203 4.7547 1.89099 4.79446 1.70341 4.872C1.51582 4.94954 1.34539 5.06333 1.20186 5.20686C1.05834 5.35039 0.944543 5.52082 0.867004 5.7084C0.789466 5.89599 0.749705 6.09702 0.750002 6.3V15.21C0.749705 15.413 0.789466 15.614 0.867004 15.8016C0.944543 15.9892 1.05834 16.1596 1.20186 16.3031C1.34539 16.4467 1.51582 16.5605 1.70341 16.638C1.89099 16.7155 2.09203 16.7553 2.295 16.755H14.955C15.158 16.7553 15.359 16.7155 15.5466 16.638C15.7342 16.5605 15.9046 16.4467 16.0481 16.3031C16.1917 16.1596 16.3055 15.9892 16.383 15.8016C16.4605 15.614 16.5003 15.413 16.5 15.21V13.3725C16.7006 13.3655 16.8907 13.2812 17.0305 13.1372C17.1703 12.9932 17.249 12.8007 17.25 12.6V8.91C17.249 8.7093 17.1703 8.51679 17.0305 8.37279C16.8907 8.22879 16.7006 8.14447 16.5 8.1375ZM4.935 2.2425C4.95299 2.19366 4.98096 2.1491 5.01711 2.11165C5.05327 2.0742 5.09682 2.04469 5.145 2.025C5.2415 1.98757 5.3485 1.98757 5.445 2.025L12 4.755H10.185L5.745 3.2775C5.6534 3.24561 5.55301 3.25046 5.46491 3.29101C5.37681 3.33157 5.30785 3.40468 5.2725 3.495L4.785 4.755H3.93L4.935 2.2425ZM7.815 4.755H5.595L5.8425 4.1025L7.815 4.755ZM15.75 15.21C15.7498 15.4208 15.666 15.6229 15.5169 15.7719C15.3679 15.921 15.1658 16.0048 14.955 16.005H2.295C2.08422 16.0048 1.88212 15.921 1.73307 15.7719C1.58402 15.6229 1.5002 15.4208 1.5 15.21V6.3C1.50138 6.08958 1.58558 5.88817 1.73437 5.73937C1.88317 5.59058 2.08458 5.50638 2.295 5.505H14.955C15.1654 5.50638 15.3668 5.59058 15.5156 5.73937C15.6644 5.88817 15.7486 6.08958 15.75 6.3V8.13H12.375C11.6788 8.13 11.0111 8.40656 10.5188 8.89885C10.0266 9.39113 9.75 10.0588 9.75 10.755C9.75 11.4512 10.0266 12.1189 10.5188 12.6112C11.0111 13.1034 11.6788 13.38 12.375 13.38H15.75V15.21ZM16.5 12.6C16.4995 12.6078 16.4961 12.6151 16.4906 12.6206C16.4851 12.6261 16.4778 12.6295 16.47 12.63H12.375C11.8777 12.63 11.4008 12.4325 11.0492 12.0808C10.6975 11.7292 10.5 11.2523 10.5 10.755C10.5 10.2577 10.6975 9.78081 11.0492 9.42918C11.4008 9.07754 11.8777 8.88 12.375 8.88L16.5 8.91V12.6Z" fill="#234777"/>
<path d="M12.375 9.63C12.1525 9.63 11.935 9.69598 11.75 9.81959C11.565 9.94321 11.4208 10.1189 11.3356 10.3245C11.2505 10.53 11.2282 10.7562 11.2716 10.9745C11.315 11.1927 11.4222 11.3932 11.5795 11.5505C11.7368 11.7078 11.9373 11.815 12.1555 11.8584C12.3738 11.9018 12.6 11.8795 12.8055 11.7944C13.0111 11.7092 13.1868 11.565 13.3104 11.38C13.434 11.195 13.5 10.9775 13.5 10.755C13.5 10.4566 13.3815 10.1705 13.1705 9.9595C12.9595 9.74852 12.6734 9.63 12.375 9.63ZM12.375 11.13C12.3008 11.13 12.2283 11.108 12.1667 11.0668C12.105 11.0256 12.0569 10.967 12.0285 10.8985C12.0002 10.83 11.9927 10.7546 12.0072 10.6818C12.0217 10.6091 12.0574 10.5423 12.1098 10.4898C12.1623 10.4374 12.2291 10.4017 12.3018 10.3872C12.3746 10.3727 12.45 10.3802 12.5185 10.4085C12.587 10.4369 12.6456 10.485 12.6868 10.5467C12.728 10.6083 12.75 10.6808 12.75 10.755C12.75 10.8545 12.7105 10.9498 12.6402 11.0202C12.5698 11.0905 12.4745 11.13 12.375 11.13ZM5.25 7.38C5.25 7.47945 5.21049 7.57484 5.14016 7.64516C5.06984 7.71549 4.97446 7.755 4.875 7.755H3.375C3.27554 7.755 3.18016 7.71549 3.10984 7.64516C3.03951 7.57484 3 7.47945 3 7.38C3 7.28054 3.03951 7.18516 3.10984 7.11483C3.18016 7.04451 3.27554 7.005 3.375 7.005H4.875C4.97446 7.005 5.06984 7.04451 5.14016 7.11483C5.21049 7.18516 5.25 7.28054 5.25 7.38ZM6.75 8.88C6.75 8.97945 6.71049 9.07484 6.64017 9.14516C6.56984 9.21549 6.47446 9.255 6.375 9.255H3.375C3.27554 9.255 3.18016 9.21549 3.10984 9.14516C3.03951 9.07484 3 8.97945 3 8.88C3 8.78054 3.03951 8.68516 3.10984 8.61483C3.18016 8.54451 3.27554 8.505 3.375 8.505H6.375C6.47446 8.505 6.56984 8.54451 6.64017 8.61483C6.71049 8.68516 6.75 8.78054 6.75 8.88Z" fill="#234777"/>
</svg>
