<svg width="30" height="30" viewBox="0 0 30 30" fill="none" xmlns="http://www.w3.org/2000/svg">
<path d="M24.9954 11.0276C23.6089 5.50411 18.0073 2.15045 12.4838 3.53698C8.16732 4.62055 5.03307 8.35122 4.71014 12.7899C1.64526 13.2953 -0.429613 16.1896 0.0758197 19.2544C0.525126 21.9792 2.88608 23.9746 5.64753 23.9636H10.3345V22.0888H5.64753C3.57671 22.0888 1.89794 20.4101 1.89794 18.3393C1.89794 16.2684 3.57671 14.5897 5.64753 14.5897C6.16527 14.5897 6.58493 14.17 6.58493 13.6523C6.58024 8.99287 10.3537 5.21187 15.0131 5.20725C19.0465 5.2032 22.5185 8.05465 23.2987 12.0118C23.3363 12.2045 23.4334 12.3805 23.5764 12.5151C23.7193 12.6496 23.9009 12.7359 24.0955 12.7617C26.6582 13.1267 28.4398 15.5 28.0749 18.0627C27.7473 20.3639 25.7825 22.0772 23.4581 22.0888H19.7085V23.9636H23.4581C27.0821 23.9527 30.011 21.006 29.9999 17.382C29.9908 14.3653 27.926 11.7435 24.9954 11.0276Z" fill="#234777"/>
<path d="M14.3551 14.8616L10.6055 18.6112L11.9272 19.9329L14.0832 17.7863V26.7759H15.958V17.7863L18.1046 19.9329L19.4264 18.6112L15.6768 14.8616C15.3111 14.4981 14.7207 14.4981 14.3551 14.8616Z" fill="#234777"/>
</svg>
