<svg width="16" height="16" viewBox="0 0 16 16" fill="none" xmlns="http://www.w3.org/2000/svg">
<g clip-path="url(#clip0_3863_6072)">
<path fill-rule="evenodd" clip-rule="evenodd" d="M14.7335 4.286C13.3162 5.70334 9.98949 9.02934 9.17816 9.838C9.00444 10.0115 8.7977 10.1484 8.57016 10.2407C7.9195 10.5107 6.33216 11.1333 5.8655 11.1647C5.72793 11.1739 5.58998 11.1536 5.4609 11.1052C5.33183 11.0567 5.21461 10.9812 5.11711 10.8837C5.01962 10.7862 4.94411 10.669 4.89566 10.5399C4.8472 10.4108 4.82691 10.2729 4.83616 10.1353C4.8675 9.66867 5.49016 8.08267 5.7555 7.43467C5.84816 7.20467 5.98616 6.996 6.1615 6.82134L11.7148 1.26734C11.9839 0.99873 12.3486 0.84787 12.7288 0.84787C13.109 0.84787 13.4737 0.99873 13.7428 1.26734L14.7335 2.258C15.0021 2.5271 15.153 2.89179 15.153 3.272C15.153 3.65222 15.0021 4.0169 14.7335 4.286ZM5.83816 10.1627C6.29416 10.1053 7.62683 9.54934 8.18683 9.31667C8.29326 9.27483 8.38994 9.21151 8.47083 9.13067L8.4715 9.13C10.3243 7.28082 12.1759 5.43038 14.0262 3.57867C14.0665 3.53842 14.0985 3.49062 14.1203 3.438C14.1421 3.38538 14.1533 3.32897 14.1533 3.272C14.1533 3.21504 14.1421 3.15863 14.1203 3.10601C14.0985 3.05339 14.0665 3.00558 14.0262 2.96534L13.0355 1.97467C12.9952 1.93435 12.9474 1.90237 12.8948 1.88055C12.8422 1.85873 12.7858 1.8475 12.7288 1.8475C12.6719 1.8475 12.6155 1.85873 12.5628 1.88055C12.5102 1.90237 12.4624 1.93435 12.4222 1.97467L6.86816 7.52867C6.78819 7.60821 6.72535 7.70327 6.6835 7.808L6.68216 7.81067C6.45216 8.372 5.89549 9.706 5.83816 10.1627Z" fill="white"/>
<path fill-rule="evenodd" clip-rule="evenodd" d="M13.413 4.89934C13.4594 4.94578 13.4963 5.00092 13.5214 5.0616C13.5465 5.12229 13.5595 5.18732 13.5595 5.25301C13.5595 5.31869 13.5465 5.38373 13.5214 5.44441C13.4963 5.50509 13.4594 5.56023 13.413 5.60667C13.3665 5.65312 13.3114 5.68996 13.2507 5.71509C13.19 5.74023 13.125 5.75317 13.0593 5.75317C12.9936 5.75317 12.9286 5.74023 12.8679 5.71509C12.8072 5.68996 12.7521 5.65312 12.7057 5.60667L10.3943 3.29534C10.3005 3.20154 10.2478 3.07432 10.2478 2.94167C10.2478 2.80902 10.3005 2.6818 10.3943 2.58801C10.4881 2.49421 10.6153 2.44151 10.748 2.44151C10.8806 2.44151 11.0079 2.49421 11.1017 2.58801L13.413 4.89934ZM9.33232 8.98001C9.37872 9.02641 9.41553 9.08149 9.44064 9.14212C9.46575 9.20274 9.47868 9.26772 9.47868 9.33334C9.47868 9.39896 9.46575 9.46394 9.44064 9.52456C9.41553 9.58519 9.37872 9.64027 9.33232 9.68667C9.28592 9.73307 9.23084 9.76988 9.17021 9.79499C9.10959 9.8201 9.04461 9.83303 8.97899 9.83303C8.91337 9.83303 8.84839 9.8201 8.78777 9.79499C8.72714 9.76988 8.67206 9.73307 8.62566 9.68667L6.31432 7.37534C6.26792 7.32894 6.23112 7.27385 6.20601 7.21323C6.18089 7.1526 6.16797 7.08763 6.16797 7.02201C6.16797 6.95639 6.18089 6.89141 6.20601 6.83078C6.23112 6.77016 6.26792 6.71507 6.31432 6.66867C6.36073 6.62227 6.41581 6.58547 6.47644 6.56035C6.53706 6.53524 6.60204 6.52232 6.66766 6.52232C6.73328 6.52232 6.79826 6.53524 6.85888 6.56035C6.91951 6.58547 6.97459 6.62227 7.02099 6.66867L9.33232 8.98001Z" fill="white"/>
<path fill-rule="evenodd" clip-rule="evenodd" d="M5.66732 2.16667C5.79993 2.16667 5.9271 2.21935 6.02087 2.31312C6.11464 2.40689 6.16732 2.53406 6.16732 2.66667C6.16732 2.79928 6.11464 2.92646 6.02087 3.02023C5.9271 3.11399 5.79993 3.16667 5.66732 3.16667H3.33398C2.93616 3.16667 2.55463 3.32471 2.27332 3.60601C1.99202 3.88732 1.83398 4.26885 1.83398 4.66667V12.6667C1.83398 13.0645 1.99202 13.446 2.27332 13.7273C2.55463 14.0086 2.93616 14.1667 3.33398 14.1667H12.0007C12.3985 14.1667 12.78 14.0086 13.0613 13.7273C13.3426 13.446 13.5007 13.0645 13.5007 12.6667V10.3333C13.5007 10.2007 13.5533 10.0736 13.6471 9.97979C13.7409 9.88602 13.868 9.83334 14.0007 9.83334C14.1333 9.83334 14.2604 9.88602 14.3542 9.97979C14.448 10.0736 14.5007 10.2007 14.5007 10.3333V12.6667C14.5003 13.3296 14.2368 13.9653 13.768 14.434C13.2993 14.9028 12.6636 15.1663 12.0007 15.1667H3.33398C2.67105 15.1663 2.03537 14.9028 1.56661 14.434C1.09784 13.9653 0.834338 13.3296 0.833984 12.6667V4.66667C0.833984 4.00363 1.09738 3.36775 1.56622 2.8989C2.03506 2.43006 2.67094 2.16667 3.33398 2.16667H5.66732Z" fill="white"/>
</g>
<defs>
<clipPath id="clip0_3863_6072">
<rect width="16" height="16" rx="8" fill="white"/>
</clipPath>
</defs>
</svg>
